<svg xmlns="http://www.w3.org/2000/svg"><g fill={props.fill} class={props.class}><path d="M10.62,6l4.94,16.95L20.24,6h-2.82V0h11V6h-2.82l5.01,16.95,4.82-16.95h-3.08V0h12.26V6h-3.32l-8.47,29.51h-5.65l-4.8-16.12-4.56,16.12h-5.86L3.24,6H0V0H13.78V6h-3.16Z"/><path d="M61.98,22.99c0,2.45-.5,4.66-1.5,6.63s-2.35,3.51-4.05,4.62-3.57,1.66-5.61,1.66c-2.16,0-4.09-.55-5.8-1.66s-3.03-2.65-3.98-4.62-1.43-4.18-1.43-6.63,.49-4.63,1.47-6.59,2.33-3.49,4.04-4.61,3.61-1.68,5.69-1.68,4.03,.56,5.74,1.68,3.03,2.65,3.99,4.61,1.44,4.15,1.44,6.59Zm-11.21,6.8c1.32,0,2.36-.6,3.11-1.79s1.12-2.91,1.12-5.14c0-2.09-.37-3.73-1.12-4.91s-1.8-1.77-3.15-1.77-2.4,.58-3.1,1.75-1.05,2.92-1.05,5.26c0,1.98,.38,3.58,1.14,4.79s1.78,1.82,3.05,1.82Z"/><path d="M82.45,10.41v7.38c-1.86,.14-3.35,.48-4.45,1.02s-1.95,1.46-2.55,2.78-.9,3.19-.9,5.62v2.44h4.24v5.67h-14.94v-5.67h3.91v-13.2h-3.71v-5.77h9.93v6.26c.5-1.89,1.43-3.46,2.78-4.71s3.03-1.88,5.03-1.88c.3,0,.52,.02,.67,.05Z"/><path d="M109.87,29.65v5.67h-10.23v-2.93c-1.95,2.2-4.01,3.3-6.2,3.3-1.8,0-3.38-.56-4.76-1.68s-2.46-2.65-3.23-4.61-1.17-4.12-1.17-6.52,.39-4.67,1.17-6.61,1.87-3.45,3.29-4.54,3-1.63,4.74-1.63c2.5,0,4.55,1.12,6.16,3.35V5.65h-3.36V0h10.11V29.65h3.49Zm-14.43-.14c1.32,0,2.36-.61,3.11-1.82s1.12-2.78,1.12-4.7-.38-3.49-1.14-4.71-1.81-1.83-3.13-1.83-2.3,.61-3.06,1.83-1.13,2.77-1.13,4.66,.38,3.48,1.13,4.71,1.79,1.85,3.1,1.85Z"/><path d="M124.6,29.65v5.67h-13.15v-5.67h3.32V5.65h-3.32V0h10.13V29.65h3.02Z"/><path d="M148.75,24.66h-15.89c.16,1.89,.73,3.39,1.69,4.49s2.21,1.65,3.74,1.65c1.69,0,3.34-.97,4.94-2.91l5.27,1.97c-1.16,2.02-2.6,3.53-4.32,4.54s-3.75,1.51-6.1,1.51-4.43-.51-6.23-1.54-3.2-2.47-4.19-4.35-1.49-4.08-1.49-6.61,.52-4.77,1.55-6.8,2.43-3.62,4.19-4.77,3.68-1.72,5.75-1.72c2.24,0,4.19,.6,5.86,1.79s2.94,2.89,3.84,5.09,1.36,4.75,1.39,7.65Zm-11.41-9.3c-1.22,0-2.19,.41-2.93,1.22s-1.2,2.05-1.39,3.73h8.88c-.19-1.47-.71-2.66-1.55-3.57s-1.85-1.37-3.01-1.37Z"/></g></svg>